<?xml version="1.0" encoding="UTF-8" standalone="no"?>
<!-- Created with Inkscape (http://www.inkscape.org/) -->

<svg
   width="202.67091mm"
   height="248.70833mm"
   viewBox="0 0 202.67091 248.70833"
   version="1.1"
   id="svg1"
   xml:space="preserve"
   xmlns="http://www.w3.org/2000/svg"
   xmlns:svg="http://www.w3.org/2000/svg"><defs
     id="defs1"><linearGradient
       id="paint0_linear_2111_18575"
       x1="714.565"
       y1="446.53699"
       x2="528.17401"
       y2="481.259"
       gradientUnits="userSpaceOnUse"
       gradientTransform="matrix(0.26458333,0,0,0.26458333,-30.497919,-8.8243142)"><stop
         stop-color="#AC5FC8"
         id="stop4" /><stop
         offset="1"
         stop-color="#AC5FC8"
         stop-opacity="0"
         id="stop5" /></linearGradient><linearGradient
       id="paint1_linear_2111_18575"
       x1="783.22803"
       y1="484.384"
       x2="278.88"
       y2="516.20099"
       gradientUnits="userSpaceOnUse"
       gradientTransform="matrix(0.26458333,0,0,0.26458333,-30.497919,-8.8243142)"><stop
         stop-color="#03A2DB"
         id="stop6" /><stop
         offset="1"
         stop-color="#03A2DB"
         stop-opacity="0"
         id="stop7" /></linearGradient></defs><g
     id="layer1"
     transform="translate(-3.6332479,-2.288192)"><path
       d="m 158.55454,109.32669 c 2.43047,5.69384 -2.49713,13.17414 -22.2541,33.78412 -21.17831,22.09324 -27.11053,25.95563 -35.86401,23.34948 -8.754794,-2.60588 -11.609384,-9.08341 -17.257973,-39.1623 -8.615363,-45.873989 -5.686425,-48.486484 39.357033,-35.079518 22.82402,6.793971 33.85317,12.034568 36.01905,17.108218 z"
       fill="#8374d3"
       fill-opacity="0.97647"
       id="path1"
       style="display:inline;stroke-width:0.264583" /><path
       d="m 158.55454,109.32669 c 2.43047,5.69384 -2.49713,13.17414 -22.2541,33.78412 -21.17831,22.09324 -27.11053,25.95563 -35.86401,23.34948 -8.754794,-2.60588 -11.609384,-9.08341 -17.257973,-39.1623 -8.615363,-45.873989 -5.686425,-48.486484 39.357033,-35.079518 22.82402,6.793971 33.85317,12.034568 36.01905,17.108218 z"
       fill="url(#paint0_linear_2111_18575)"
       id="path2"
       style="display:inline;fill:url(#paint0_linear_2111_18575);stroke-width:0.264583" /><path
       d="m 56.371932,250.99625 c 7.388758,-8.52493 10.76599,-19.5007 11.619906,-31.91459 0.01449,-0.21064 0.02825,-0.42169 0.0413,-0.63315 4.287881,-69.51522 -69.1490994,-183.241451 37.973312,-165.416417 15.52813,2.408767 28.8147,3.48959 51.59375,1.22555 31.69153,-19.082279 28.32576,-24.67901 48.70396,-43.940094 C 102.3118,11.577997 141.65957,17.977448 84.459834,8.1719898 65.282305,4.884436 37.000728,-2.9201107 18.841845,7.5883718 -0.87781521,18.999798 3.7015931,54.79025 5.099916,73.700814 9.1723826,128.76695 18.127735,208.85845 56.367434,250.99652"
       fill="#4f87d3"
       id="path3"
       style="display:inline;stroke-width:0.264583" /><path
       d="M 56.371932,250.99625 C 105.10051,194.77467 -20.646291,31.957237 106.00644,53.032093 c 15.52813,2.408767 28.81471,3.48959 51.59375,1.22555 31.69153,-19.082279 28.32576,-24.67901 48.70397,-43.940094 C 102.3118,11.577997 141.65957,17.977448 84.459834,8.1719898 65.282305,4.884436 37.000728,-2.9201107 18.841845,7.5883718 -0.87781521,18.999798 3.7015931,54.79025 5.099916,73.700814 9.1723826,128.76695 18.127735,208.85845 56.367434,250.99652"
       fill="url(#paint1_linear_2111_18575)"
       id="path4"
       style="display:inline;fill:url(#paint1_linear_2111_18575);stroke-width:0.264583" /><path
       style="display:none;opacity:1;fill:#ff5504;fill-opacity:0;stroke:#f20000;stroke-width:0.065;stroke-dasharray:none;stroke-opacity:0.498317"
       d="m 67.981799,205.17132 c 0,0 7.830643,-18.12858 14.778149,-25.18868 6.947505,-7.0601 23.678702,-12.96423 23.678702,-12.96423 m 47.89605,-62.15525 c 0,0 -10.14067,-17.889247 -10.24574,-27.461818 -0.10507,-9.572572 13.51824,-23.205207 13.51824,-23.205207"
       id="path5" /><path
       style="opacity:1;fill:#ffffff;fill-opacity:1;stroke:#ffffff;stroke-width:0.0954426;stroke-dasharray:none;stroke-opacity:0"
       d="m 324.12011,193.2319 c -26.79829,-0.10123 -54.18602,2.97683 -78.91339,13.88509 -20.34626,8.84222 -37.91287,24.21509 -48.52599,43.78315 -12.6059,22.89672 -16.93473,49.39283 -17.43709,75.25574 -1.13429,46.92905 7.5284,93.35478 16.92781,139.12417 16.64615,78.13622 38.28696,155.23126 51.54299,234.0534 4.09899,24.21352 7.18154,48.73403 8.85972,73.15253 1.03131,1.48717 2.14571,-0.98598 2.57163,-1.81632 13.08159,-27.45191 26.40556,-55.17902 44.67396,-79.62623 6.63595,-9.06604 14.92654,-16.78457 24.2088,-23.04355 21.65852,-15.02358 46.04843,-25.47568 70.39529,-35.33457 0.93011,-1.47215 -1.76041,-1.06655 -2.58046,-1.25179 -15.17784,-0.5535 -30.97983,-6.11511 -41.07272,-17.82191 -10.31452,-12.06383 -15.43008,-27.56208 -20.05224,-42.47828 -9.45932,-32.67705 -15.47007,-66.21854 -21.80815,-99.60317 -4.9547,-27.78292 -10.19447,-55.59519 -12.24299,-83.76689 -0.23151,-10.45279 -0.68176,-21.01475 0.52302,-31.43045 1.57686,-10.28465 5.36779,-21.22537 14.39342,-27.33342 8.8159,-6.10652 19.99652,-7.00025 30.43194,-6.58551 17.986,0.36521 35.66104,4.54822 53.11825,8.65082 33.58968,8.44886 66.83945,18.37422 99.79975,29.00884 25.37188,8.50624 50.87616,17.21795 74.38549,30.18862 2.67506,1.33619 5.05952,3.34508 7.88124,4.33461 1.23368,-0.91601 -0.73613,-2.58243 -0.90909,-3.73274 -12.74942,-25.86645 -26.20911,-51.8247 -32.96634,-80.02172 -2.52996,-10.71524 -3.70804,-22.02121 -0.35892,-32.66772 5.66244,-18.70823 17.00553,-35.1089 28.89934,-50.47153 6.03124,-7.68121 12.53272,-14.9776 19.2239,-22.08669 0.17673,-1.68268 -2.45039,-0.28483 -3.55373,-0.4535 -46.4684,4.49454 -93.40518,6.0665 -139.92874,1.52074 -32.23499,-2.80442 -63.989,-9.5192 -96.24151,-12.28539 -10.39007,-0.8782 -20.81935,-1.2246 -31.24519,-1.14633 z"
       id="path21"
       transform="scale(0.26458333)" /><path
       style="opacity:1;fill:#ffffff;fill-opacity:1;stroke:#ffffff;stroke-width:0.000959646;stroke-dasharray:none;stroke-opacity:0"
       d="m 258.14341,772.27055 c -0.0641,0.0116 -0.0937,0.0765 -0.136,0.11837 -0.15333,0.17436 -0.32632,0.34472 -0.54728,0.42886 -0.12116,0.0462 -0.25971,0.0495 -0.37989,-0.002 -0.0628,-0.0235 -0.11671,-0.0639 -0.17377,-0.0979 -0.0573,-0.029 -0.13541,0.0104 -0.14174,0.0752 -0.004,0.0596 0.006,0.11975 0.007,0.17955 0.042,0.67834 0.0826,1.35798 0.12373,2.03557 0.009,0.0655 0.0894,0.10701 0.14704,0.0734 0.0501,-0.0236 0.0619,-0.0839 0.0858,-0.12883 0.36443,-0.83294 0.73425,-1.66301 1.10332,-2.49386 0.0188,-0.0416 0.0407,-0.0903 0.0169,-0.13464 -0.0194,-0.0385 -0.0627,-0.06 -0.10522,-0.054 z"
       id="path22"
       transform="scale(0.26458333)" /><path
       style="opacity:1;fill:#ffffff;fill-opacity:1;stroke:#ffffff;stroke-width:0.000959646;stroke-dasharray:none;stroke-opacity:0"
       d="m 581.51704,393.30328 c -0.0574,0.0137 -0.0909,0.0789 -0.0727,0.13421 0.058,0.20137 0.091,0.42402 0.0252,0.62938 -0.046,0.14992 -0.14443,0.27822 -0.26252,0.37921 -0.0142,0.0169 -0.0303,0.026 -0.0503,0.0115 -0.1309,-0.046 -0.25915,-0.0983 -0.39024,-0.14501 -0.0615,-0.0229 -0.1382,0.0246 -0.13697,0.0921 -0.005,0.0519 0.0375,0.0903 0.0787,0.11361 0.66471,0.43688 1.32624,0.87768 1.98104,1.32893 0.0605,0.039 0.11657,0.0862 0.18125,0.11817 0.0565,0.023 0.12611,-0.0156 0.1358,-0.0761 0.009,-0.0593 -0.0371,-0.106 -0.0602,-0.15647 -0.42664,-0.76623 -0.84984,-1.53416 -1.271,-2.30345 -0.029,-0.0478 -0.0502,-0.11503 -0.11309,-0.12618 -0.0149,-0.005 -0.0299,-8.9e-4 -0.0451,5e-5 z"
       id="path23"
       transform="scale(0.26458333)" /><path
       style="opacity:1;fill:#ffffff;fill-opacity:1;stroke:#ffffff;stroke-width:0.000959646;stroke-dasharray:none;stroke-opacity:0"
       d="m 595.22295,205.01392 c -0.0676,0.005 -0.136,0.009 -0.20258,0.0225 -0.058,0.0178 -0.0861,0.0885 -0.0612,0.14276 0.0232,0.0518 0.0176,0.12077 0.0683,0.1568 0.0441,0.0335 0.10901,0.0205 0.14349,-0.0209 0.0479,-0.0484 0.0999,-0.0937 0.1417,-0.14762 0.0331,-0.0498 0.009,-0.12358 -0.0461,-0.14553 -0.0135,-0.006 -0.0288,-0.008 -0.0436,-0.008 z"
       id="path24"
       transform="scale(0.26458333)" /><path
       style="opacity:1;fill:#ffffff;fill-opacity:1;stroke:#ffffff;stroke-width:0.000959646;stroke-dasharray:none;stroke-opacity:0"
       d="m 400.97206,631.48468 c -0.82473,0.0864 -1.65314,0.14935 -2.48192,0.19082 -0.0466,10e-4 -0.101,0.006 -0.12835,0.0498 -0.0313,0.0449 -0.0158,0.10725 0.0241,0.14148 0.0608,0.0532 0.11187,0.12167 0.12603,0.20288 0.0252,0.13648 -0.0286,0.27049 -0.0833,0.39289 -0.0216,0.0535 0.0108,0.12041 0.0677,0.13338 0.0545,0.0145 0.10465,-0.0221 0.1551,-0.0368 0.77636,-0.29148 1.55421,-0.57832 2.33219,-0.86488 0.0442,-0.0136 0.0885,-0.0436 0.0958,-0.0926 0.0112,-0.0632 -0.0434,-0.12202 -0.10728,-0.11697 z"
       id="path25"
       transform="scale(0.26458333)" /></g></svg>
